<svg xmlns="http://www.w3.org/2000/svg" width="18" height="18" viewBox="490 410 1210 1210"><path fill="black" fill-rule="evenodd" d="M 840.774 451.43 C 841.114 451.405 841.454 451.381 841.794 451.356 C 887.658 450.658 933.585 451.213 979.45 451.145 C 992.614 451.125 1005.62 451.215 1018.66 452.294 C 1073.13 456.468 1124.72 478.365 1165.57 514.636 C 1216.66 559.421 1247.69 622.798 1251.74 690.619 C 1253.92 727.96 1252.04 784.613 1252.05 823.372 L 1252.07 913.137 C 1252.07 949.376 1253.78 981.415 1245.07 1017.09 C 1235.03 1057.81 1215.1 1095.43 1187.03 1126.6 C 1140.93 1177.87 1077.54 1206.24 1009.11 1209.97 L 899.73 1210.03 C 875.509 1210.03 843.636 1210.81 820.055 1208.45 C 769.642 1203.42 717.233 1179.79 679.088 1146.44 C 629.953 1103.47 600.044 1042.63 596.021 977.482 C 594.743 958.352 595.093 937.571 595.055 918.282 L 595.044 825.472 L 594.987 743.227 C 594.968 711.378 593.76 680.946 600.834 649.519 C 610.043 608.182 629.473 569.816 657.346 537.931 C 706.471 482.368 767.556 455.84 840.774 451.43 z M 837.678 525.423 C 863.987 522.798 898.306 525.443 925.579 524.936 C 999.064 523.568 1057.68 518.056 1117.69 570.477 C 1152.33 600.983 1173.6 643.881 1176.91 689.922 C 1179.33 726.996 1177.6 781.472 1177.67 819.656 L 1177.89 911.429 C 1177.93 940.325 1179.18 970.151 1172.92 998.371 C 1166.62 1027.37 1152.87 1054.22 1133.01 1076.27 C 1102 1111.61 1058.18 1133.13 1011.25 1136.07 C 978.941 1137.56 944.155 1136.69 911.686 1136.6 C 880.048 1136.51 840.89 1138.9 810.356 1132.92 C 733.147 1117.78 674.177 1049.36 669.22 971.049 C 668.194 955.709 668.763 940.165 668.808 924.914 L 668.961 848.089 L 669.016 749.055 C 669.037 723.02 667.765 690.502 673.057 665.672 C 679.276 636.275 692.997 608.988 712.886 586.465 C 745.317 549.254 788.621 528.963 837.678 525.423 z"/><path fill="black" d="M 1025.58 715.356 C 1055.13 710.734 1082.84 730.919 1087.51 760.463 C 1092.17 790.007 1072.03 817.745 1042.49 822.45 C 1012.89 827.165 985.086 806.97 980.414 777.367 C 975.741 747.764 995.975 719.987 1025.58 715.356 z"/><path fill="black" d="M 800.44 715.481 C 829.842 710.326 857.875 729.925 863.129 759.31 C 868.384 788.694 848.881 816.794 819.515 822.149 C 790.006 827.53 761.741 807.912 756.461 778.385 C 751.181 748.858 770.895 720.66 800.44 715.481 z"/><path fill="black" d="M 600.787 1392.19 C 624.688 1390.55 667.206 1391.91 692.196 1391.92 L 871.134 1391.9 L 1133.22 1392 C 1181.69 1391.97 1230.18 1391.78 1278.64 1392.09 C 1283.57 1392.12 1300.07 1393.26 1303.71 1396.29 C 1319.85 1409.7 1334.88 1425.3 1349.94 1439.99 L 1435.81 1524.15 L 1530.91 1524.32 C 1549.59 1524.28 1568.33 1523.87 1586.99 1524.69 C 1602.8 1525.39 1614.84 1536.18 1618.97 1551.24 C 1621.66 1560.79 1620.39 1571.02 1615.45 1579.63 C 1609.65 1589.7 1601.51 1594.03 1590.86 1596.92 C 1589.07 1597.05 1587.3 1597.17 1585.51 1597.23 C 1560.48 1598.15 1420.4 1600.17 1407.23 1594.86 C 1402.79 1593.08 1398.72 1589.63 1395.18 1586.45 C 1382.61 1575.2 1370.97 1562.53 1358.94 1550.66 C 1330.11 1522.19 1301.44 1493.33 1271.94 1465.57 C 1213.55 1463.52 1146.25 1465.04 1087.3 1465.09 L 773.216 1465.06 L 668.522 1465.24 C 648.254 1465.34 628.626 1465.41 607.754 1465.15 C 577.565 1464.77 561.734 1435.82 575.714 1409.63 C 580.879 1399.95 590.244 1394.97 600.787 1392.19 z"/><path fill="black" d="M 692.53 1264.49 C 795.248 1263.19 901.109 1264.29 1003.91 1264.47 L 1112.27 1264.69 C 1130.62 1264.72 1149.64 1264.35 1167.97 1265.04 C 1175.98 1265.34 1181.66 1266.67 1188.09 1271.67 C 1196.28 1278.12 1201.49 1287.63 1202.52 1298 C 1204.69 1321.74 1187.68 1336.52 1165.13 1337.87 L 844.078 1338.03 L 742.208 1337.99 C 723.238 1337.98 704.568 1338.22 685.614 1337.28 C 655.244 1335.77 642.514 1297.08 663.037 1275.96 C 672.328 1266.4 679.861 1265.15 692.53 1264.49 z"/></svg>